<?xml version="1.0" encoding="UTF-8" standalone="no"?>
<!DOCTYPE svg PUBLIC "-//W3C//DTD SVG 1.1//EN"
 "http://www.w3.org/Graphics/SVG/1.1/DTD/svg11.dtd">
<!-- Generated by graphviz version 2.43.0 (0)
 -->
<!-- Title: flow Pages: 1 -->
<svg width="810pt" height="322pt"
 viewBox="0.00 0.00 810.40 322.40" xmlns="http://www.w3.org/2000/svg" xmlns:xlink="http://www.w3.org/1999/xlink">
<g id="graph0" class="graph" transform="scale(1 1) rotate(0) translate(25.2 297.2)">
<title>flow</title>
<polygon fill="#101419" stroke="transparent" points="-25.2,25.2 -25.2,-297.2 785.2,-297.2 785.2,25.2 -25.2,25.2"/>
<!-- imp -->
<g id="node1" class="node">
<title>imp</title>
<path fill="#192129" stroke="#33404c" d="M119,-272C119,-272 12,-272 12,-272 6,-272 0,-266 0,-260 0,-260 0,-232 0,-232 0,-226 6,-220 12,-220 12,-220 119,-220 119,-220 125,-220 131,-226 131,-232 131,-232 131,-260 131,-260 131,-266 125,-272 119,-272"/>
<text text-anchor="middle" x="65.5" y="-249.6" font-family="DejaVu Sans" font-size="13.00" fill="#edf2f6">Import batch</text>
<text text-anchor="middle" x="65.5" y="-235.6" font-family="DejaVu Sans" font-size="13.00" fill="#edf2f6">Check identities</text>
</g>
<!-- review -->
<g id="node2" class="node">
<title>review</title>
<path fill="#203c40" stroke="#77dce3" d="M312,-272C312,-272 187,-272 187,-272 181,-272 175,-266 175,-260 175,-260 175,-232 175,-232 175,-226 181,-220 187,-220 187,-220 312,-220 312,-220 318,-220 324,-226 324,-232 324,-232 324,-260 324,-260 324,-266 318,-272 312,-272"/>
<text text-anchor="middle" x="249.5" y="-249.6" font-family="DejaVu Sans" font-size="13.00" fill="#edf2f6">Optional proposals</text>
<text text-anchor="middle" x="249.5" y="-235.6" font-family="DejaVu Sans" font-size="13.00" fill="#edf2f6">Human correction</text>
</g>
<!-- imp&#45;&gt;review -->
<g id="edge1" class="edge">
<title>imp&#45;&gt;review</title>
<path fill="none" stroke="#79d6df" d="M131.27,-246C143.36,-246 155.46,-246 167.56,-246"/>
<polygon fill="#79d6df" stroke="#79d6df" points="167.68,-248.45 174.68,-246 167.68,-243.55 167.68,-248.45"/>
</g>
<!-- export -->
<g id="node3" class="node">
<title>export</title>
<path fill="#203c40" stroke="#77dce3" d="M483.5,-272C483.5,-272 379.5,-272 379.5,-272 373.5,-272 367.5,-266 367.5,-260 367.5,-260 367.5,-232 367.5,-232 367.5,-226 373.5,-220 379.5,-220 379.5,-220 483.5,-220 483.5,-220 489.5,-220 495.5,-226 495.5,-232 495.5,-232 495.5,-260 495.5,-260 495.5,-266 489.5,-272 483.5,-272"/>
<text text-anchor="middle" x="431.5" y="-249.6" font-family="DejaVu Sans" font-size="13.00" fill="#edf2f6">Export</text>
<text text-anchor="middle" x="431.5" y="-235.6" font-family="DejaVu Sans" font-size="13.00" fill="#edf2f6">Verify readback</text>
</g>
<!-- review&#45;&gt;export -->
<g id="edge2" class="edge">
<title>review&#45;&gt;export</title>
<path fill="none" stroke="#79d6df" d="M324.15,-246C336.18,-246 348.22,-246 360.25,-246"/>
<polygon fill="#79d6df" stroke="#79d6df" points="360.34,-248.45 367.34,-246 360.34,-243.55 360.34,-248.45"/>
</g>
<!-- clean -->
<g id="node4" class="node">
<title>clean</title>
<path fill="#192129" stroke="#33404c" d="M607.5,-162C607.5,-162 457.5,-162 457.5,-162 451.5,-162 445.5,-156 445.5,-150 445.5,-150 445.5,-122 445.5,-122 445.5,-116 451.5,-110 457.5,-110 457.5,-110 607.5,-110 607.5,-110 613.5,-110 619.5,-116 619.5,-122 619.5,-122 619.5,-150 619.5,-150 619.5,-156 613.5,-162 607.5,-162"/>
<text text-anchor="middle" x="532.5" y="-139.6" font-family="DejaVu Sans" font-size="13.00" fill="#edf2f6">Confirm cleanup</text>
<text text-anchor="middle" x="532.5" y="-125.6" font-family="DejaVu Sans" font-size="13.00" fill="#edf2f6">Keep history + hashes</text>
</g>
<!-- export&#45;&gt;clean -->
<g id="edge4" class="edge">
<title>export&#45;&gt;clean</title>
<path fill="none" stroke="#79d6df" d="M454.93,-219.95C469.48,-204.39 488.3,-184.27 503.75,-167.74"/>
<polygon fill="#79d6df" stroke="#79d6df" points="505.86,-169.07 508.85,-162.29 502.28,-165.73 505.86,-169.07"/>
<text text-anchor="middle" x="489" y="-192" font-family="DejaVu Sans" font-size="10.00" fill="#aab6c2">Off</text>
</g>
<!-- train -->
<g id="node6" class="node">
<title>train</title>
<path fill="#192129" stroke="#33404c" d="M363.5,-169C363.5,-169 191.5,-169 191.5,-169 185.5,-169 179.5,-163 179.5,-157 179.5,-157 179.5,-115 179.5,-115 179.5,-109 185.5,-103 191.5,-103 191.5,-103 363.5,-103 363.5,-103 369.5,-103 375.5,-109 375.5,-115 375.5,-115 375.5,-157 375.5,-157 375.5,-163 369.5,-169 363.5,-169"/>
<text text-anchor="middle" x="277.5" y="-146.6" font-family="DejaVu Sans" font-size="13.00" fill="#edf2f6">Optional Android learning</text>
<text text-anchor="middle" x="277.5" y="-132.6" font-family="DejaVu Sans" font-size="13.00" fill="#edf2f6">Exported, accepted batch</text>
<text text-anchor="middle" x="277.5" y="-118.6" font-family="DejaVu Sans" font-size="13.00" fill="#edf2f6">Then evaluate</text>
</g>
<!-- export&#45;&gt;train -->
<g id="edge5" class="edge">
<title>export&#45;&gt;train</title>
<path fill="none" stroke="#79d6df" d="M395.78,-219.95C375.96,-206.05 350.96,-188.52 329.05,-173.16"/>
<polygon fill="#79d6df" stroke="#79d6df" points="330.4,-171.11 323.26,-169.09 327.59,-175.12 330.4,-171.11"/>
<text text-anchor="middle" x="370.5" y="-192" font-family="DejaVu Sans" font-size="10.00" fill="#aab6c2">On</text>
</g>
<!-- next -->
<g id="node5" class="node">
<title>next</title>
<path fill="#192129" stroke="#33404c" d="M748,-155C748,-155 675,-155 675,-155 669,-155 663,-149 663,-143 663,-143 663,-129 663,-129 663,-123 669,-117 675,-117 675,-117 748,-117 748,-117 754,-117 760,-123 760,-129 760,-129 760,-143 760,-143 760,-149 754,-155 748,-155"/>
<text text-anchor="middle" x="711.5" y="-132.6" font-family="DejaVu Sans" font-size="13.00" fill="#edf2f6">Next batch</text>
</g>
<!-- clean&#45;&gt;next -->
<g id="edge3" class="edge">
<title>clean&#45;&gt;next</title>
<path fill="none" stroke="#79d6df" d="M619.55,-136C631.56,-136 643.57,-136 655.58,-136"/>
<polygon fill="#79d6df" stroke="#79d6df" points="655.65,-138.45 662.65,-136 655.65,-133.55 655.65,-138.45"/>
</g>
<!-- train&#45;&gt;clean -->
<g id="edge6" class="edge">
<title>train&#45;&gt;clean</title>
<path fill="none" stroke="#79d6df" d="M375.72,-136C396.18,-136 417.7,-136 438.02,-136"/>
<polygon fill="#79d6df" stroke="#79d6df" points="438.15,-138.45 445.15,-136 438.15,-133.55 438.15,-138.45"/>
<text text-anchor="middle" x="410.5" y="-142" font-family="DejaVu Sans" font-size="10.00" fill="#aab6c2">Complete</text>
</g>
<!-- hold -->
<g id="node7" class="node">
<title>hold</title>
<path fill="#192129" stroke="#33404c" d="M339.5,-52C339.5,-52 215.5,-52 215.5,-52 209.5,-52 203.5,-46 203.5,-40 203.5,-40 203.5,-12 203.5,-12 203.5,-6 209.5,0 215.5,0 215.5,0 339.5,0 339.5,0 345.5,0 351.5,-6 351.5,-12 351.5,-12 351.5,-40 351.5,-40 351.5,-46 345.5,-52 339.5,-52"/>
<text text-anchor="middle" x="277.5" y="-29.6" font-family="DejaVu Sans" font-size="13.00" fill="#edf2f6">Error / interruption</text>
<text text-anchor="middle" x="277.5" y="-15.6" font-family="DejaVu Sans" font-size="13.00" fill="#edf2f6">Keep images</text>
</g>
<!-- train&#45;&gt;hold -->
<g id="edge7" class="edge">
<title>train&#45;&gt;hold</title>
<path fill="none" stroke="#79d6df" d="M277.5,-102.89C277.5,-89.25 277.5,-73.36 277.5,-59.66"/>
<polygon fill="#79d6df" stroke="#79d6df" points="279.95,-59.31 277.5,-52.31 275.05,-59.31 279.95,-59.31"/>
</g>
<!-- hold&#45;&gt;train -->
<g id="edge8" class="edge">
<title>hold&#45;&gt;train</title>
<path fill="none" stroke="#79d6df" stroke-dasharray="5,2" d="M286.19,-52.43C287.98,-58.75 289.59,-65.56 290.5,-72 291.59,-79.7 291.12,-87.88 289.87,-95.7"/>
<polygon fill="#79d6df" stroke="#79d6df" points="287.43,-95.43 288.51,-102.76 292.24,-96.35 287.43,-95.43"/>
<text text-anchor="middle" x="311.5" y="-75" font-family="DejaVu Sans" font-size="10.00" fill="#aab6c2">Resume</text>
</g>
</g>
</svg>
